<?xml version="1.0" encoding="UTF-8"?>
<svg id="Layer_2" data-name="Layer 2" xmlns="http://www.w3.org/2000/svg" viewBox="0 0 128 128">
  <defs>
    <style>
      .cls-1 {
        fill: transparent;
      }
    </style>
  </defs>
  <g id="Layer_1-2" data-name="Layer 1">
    <g>
      <path class="cls-1" d="M128,64.5v63.5H.1v-63.5L64.55,12.86l63.45,51.63ZM6.17,89.41c-1.38,1.95,10.42,17.99,13.42,19.73l44.16-36.6,44.91,35.54c2.56.45,12.93-14.77,13.18-17.47.35-3.71-51.03-42.2-57.29-47.98L6.17,89.41ZM89.03,121.07l-24.48-18.91-18.96,14.94-5.52,5.92c9.53,2.5,18.51,4.64,28.52,4.02,1.76-.11,22.11-3.53,20.44-5.98Z"/>
      <path d="M72.05,0c12.81,2.6,24.63,7.17,34.5,15.85,11.89,10.46,18.47,24.35,21.46,39.72v8.93L64.55,12.86.1,64.5c.23-2.89-.32-6.12,0-8.93C3.23,28.3,28.48,2.94,56.06,0h15.99Z"/>
      <path class="cls-1" d="M56.06,0C28.48,2.94,3.23,28.3.1,55.57V0h55.95Z"/>
      <path class="cls-1" d="M72.05,0h55.95v55.57c-2.99-15.36-9.57-29.26-21.46-39.72C96.67,7.17,84.86,2.6,72.05,0Z"/>
      <path d="M6.17,89.41l58.38-46.78c6.26,5.78,57.64,44.27,57.29,47.98-.25,2.69-10.62,17.92-13.18,17.47l-44.91-35.54-44.16,36.6c-2.99-1.73-14.79-17.78-13.42-19.73Z"/>
      <path d="M89.03,121.07c1.67,2.45-18.68,5.87-20.44,5.98-10,.62-18.99-1.52-28.52-4.02l5.52-5.92,18.96-14.94,24.48,18.91Z"/>
    </g>
  </g>
</svg>