<?xml version="1.0" encoding="UTF-8"?>
<svg id="Layer_2" data-name="Layer 2" xmlns="http://www.w3.org/2000/svg" viewBox="0 0 128 128">
  <defs>
    <style>
      .cls-1 {
        fill: transparent;
      }
    </style>
  </defs>
  <g id="Layer_1-2" data-name="Layer 1">
    <g>
      <path class="cls-1" d="M56.42.32c-9.61,1.03-20.54,6.37-28.7,11.38l36.98,36.06L100.95,11.69C92.8,6.68,81.86,1.35,72.26.32h55.43v55.43c-1.03-9.61-6.37-20.54-11.38-28.7l-36.06,36.26,36.06,36.98c5.01-8.15,10.35-19.09,11.38-28.7v56.42H0V.32h56.42ZM11.89,100.29l36.53-36.98L11.89,27.04c-14.45,23.08-14.48,50.12,0,73.24ZM100.96,116.11l-36.98-36.53-36.26,36.53c23.08,14.45,50.12,14.48,73.24,0Z"/>
      <path d="M72.26.32c9.61,1.03,20.54,6.37,28.7,11.38l-36.26,36.06L27.72,11.69C35.87,6.68,46.81,1.35,56.42.32c3.93-.42,11.91-.42,15.84,0Z"/>
      <path d="M127.68,55.74c.42,3.93.42,11.91,0,15.84-1.03,9.61-6.37,20.54-11.38,28.7l-36.06-36.98,36.06-36.26c5.01,8.15,10.35,19.09,11.38,28.7Z"/>
      <path d="M11.89,100.29c-14.48-23.13-14.45-50.17,0-73.24l36.53,36.26L11.89,100.29Z"/>
      <path d="M100.96,116.11c-23.13,14.48-50.17,14.45-73.24,0l36.26-36.53,36.98,36.53Z"/>
    </g>
  </g>
</svg>