<?xml version="1.0" encoding="UTF-8"?>
<svg id="Layer_2" data-name="Layer 2" xmlns="http://www.w3.org/2000/svg" viewBox="0 0 128 128">
  <defs>
    <style>
      .cls-1 {
        fill: transparent;
      }
    </style>
  </defs>
  <g id="Layer_1-2" data-name="Layer 1">
    <g>
      <path class="cls-1" d="M64.65.08l44.54,73.38h-50.48l29.26,48.65c42.98-17.59,52.79-75.13,17.78-106.19C97.3,8.42,82.83,1.36,71.58.08h56.42v127.92H.32v-56.52c.41,3.87,2.75,11.28,4.2,15.13,9.22,24.61,34.83,41.55,61.13,40.39L19.12,51.65h51.47L40.42,4.28C24.81,10.82,11.46,23.24,5.09,39.07c-1.71,4.25-4.3,12.19-4.77,16.54V.08h64.34Z"/>
      <path d="M.32,55.61c.47-4.35,3.06-12.29,4.77-16.54C11.46,23.24,24.81,10.82,40.42,4.28l30.17,47.36H19.12l46.52,75.35c-26.3,1.16-51.91-15.77-61.13-40.39-1.44-3.85-3.78-11.27-4.2-15.13s-.42-11.93,0-15.87Z"/>
      <path d="M71.58.08c11.25,1.28,25.72,8.34,34.17,15.84,35.01,31.06,25.2,88.6-17.78,106.19l-29.26-48.65h50.48L64.65.08c2.25.18,4.71-.25,6.93,0Z"/>
    </g>
  </g>
</svg>