<?xml version="1.0" encoding="UTF-8"?>
<svg id="Layer_2" data-name="Layer 2" xmlns="http://www.w3.org/2000/svg" viewBox="0 0 128 127">
  <defs>
    <style>
      .cls-1 {
        fill: transparent;
      }
    </style>
  </defs>
  <g id="Layer_1-2" data-name="Layer 1">
    <g>
      <path class="cls-1" d="M52.59,127H0V0h128v56.55l-3.98-15.87c-18.07,27.68-34.23,57.35-50.59,86.32h-17.86L5.47,40.67c-14.94,37.79,8.39,77.64,47.12,86.33ZM113.12,24.8c-.83-3.19-4.93-6.74-7.47-8.9-23.48-20.01-59.54-19.91-82.84.45-2.35,2.06-6.24,5.44-6.93,8.45h97.24ZM94.26,45.64h-59.53l29.28,51.6,30.25-51.6Z"/>
      <path d="M52.59,127C13.85,118.32-9.47,78.46,5.47,40.67l50.1,86.33h-2.98Z"/>
      <path d="M128,56.55v15.88c-4.83,27.92-24.31,47.92-51.6,54.57h-2.98c16.36-28.97,32.53-58.64,50.59-86.32l3.98,15.87Z"/>
      <path class="cls-1" d="M128,72.43v54.57h-51.6c27.29-6.65,46.76-26.65,51.6-54.57Z"/>
      <path d="M113.12,24.8H15.88c.7-3.01,4.58-6.39,6.93-8.45,23.29-20.37,59.35-20.47,82.84-.45,2.54,2.16,6.64,5.71,7.47,8.9Z"/>
      <polygon points="94.26 45.64 64.01 97.24 34.73 45.64 94.26 45.64"/>
    </g>
  </g>
</svg>