<?xml version="1.0" encoding="UTF-8"?>
<svg id="Layer_1" data-name="Layer 1" xmlns="http://www.w3.org/2000/svg" viewBox="0 0 480 480">
  <defs>
    <style>
      .cls-1 {
        fill: transparent;
      }
    </style>
  </defs>
  <path class="cls-1" shape-rendering="geometricPrecision" d="M480,0v480H0V0h480ZM216.72,399.36L120.84,106.56c-2.71-7.75-4.13-16.84-7.02-24.42-.22-.59-.36-1.09-.91-1.49H15.6l105.12,318.72h96ZM233.76,80.88h-97.68l105.03,318.25,118.3-.25,105-318h-97.56l-65.75,224.42-1.9-.05-.41-.55-65.02-223.82Z"/>
  <polygon style="shape-rendering: geometricPrecision;" points="233.76 80.88 298.78 304.7 299.19 305.25 301.09 305.3 366.84 80.88 464.4 80.88 359.4 398.88 241.11 399.13 136.08 80.88 233.76 80.88"/>
  <path d="M216.72,399.36h-96L15.6,80.64h97.32c.54.4.69.91.91,1.49,2.88,7.59,4.3,16.67,7.02,24.42l95.88,292.8Z"/>
</svg>